<?xml version="1.0" encoding="UTF-8" standalone="no"?>
<svg
   width="192"
   height="192"
   viewBox="0 0 50.799999 50.8"
   version="1.1"
   id="svg1"
   sodipodi:docname="favicon.svg"
   inkscape:version="1.3.2 (091e20e, 2023-11-25, custom)"
   xmlns:inkscape="http://www.inkscape.org/namespaces/inkscape"
   xmlns:sodipodi="http://sodipodi.sourceforge.net/DTD/sodipodi-0.dtd"
   xmlns="http://www.w3.org/2000/svg"
   xmlns:svg="http://www.w3.org/2000/svg">
  <sodipodi:namedview
     id="namedview1"
     pagecolor="#ffffff"
     bordercolor="#000000"
     borderopacity="0.25"
     inkscape:showpageshadow="2"
     inkscape:pageopacity="0.0"
     inkscape:pagecheckerboard="0"
     inkscape:deskcolor="#d1d1d1"
     inkscape:zoom="1.0585938"
     inkscape:cx="16.059041"
     inkscape:cy="-64.708487"
     inkscape:window-width="1920"
     inkscape:window-height="1009"
     inkscape:window-x="-8"
     inkscape:window-y="-8"
     inkscape:window-maximized="1"
     inkscape:current-layer="layer1" />
  <defs
     id="defs1" />
  <g
     id="layer1"
     transform="matrix(1.0000346,0,0,1.0008526,-8.7880491e-4,-0.03832086)"
     style="stroke-width:0.999557">
    <path
       style="fill:none;stroke:#d1b036;stroke-width:3.17359;stroke-linecap:round;stroke-linejoin:round;stroke-dasharray:none;stroke-opacity:1"
       d="m 6.6145832,12.614583 v 25.570834 a 6,6 45 0 0 5.9999998,6 h 25.570834 a 6,6 135 0 0 6,-6 V 12.823697 A 6.0334881,6.0334881 45.159449 0 0 38.18551,6.790302 L 12.61449,6.6479773 A 5.9666978,5.9666978 135.15945 0 0 6.6145832,12.614583 Z"
       id="path102" />
    <path
       fill-rule="evenodd"
       clip-rule="evenodd"
       d="m 24.26529,11.267093 c 1.274844,-0.01881 2.371441,0.672922 3.339309,1.637618 l 0.0013,0.0011 1.625544,1.624151 c 0.18199,-0.271424 0.392871,-0.529071 0.632388,-0.768496 1.988238,-1.986599 5.211851,-1.986599 7.20009,1.3e-5 1.988238,1.986598 1.988238,5.207513 0,7.194126 -0.239649,0.239411 -0.497481,0.450084 -0.769111,0.63194 l 1.625413,1.624099 0.0013,0.0013 c 0.965424,0.966952 1.657658,2.062652 1.63896,3.336456 -0.01873,1.264005 -0.733514,2.320142 -1.641799,3.221233 -5.82e-4,5.13e-4 -0.0013,0.0013 -0.0018,0.0018 l -1.645527,1.644192 c -0.614981,0.614347 -1.41982,0.54952 -1.90569,0.34461 -0.48097,-0.202981 -0.99431,-0.669251 -1.111164,-1.382319 -0.08191,-0.500032 -0.314846,-0.978677 -0.702304,-1.36582 -0.980895,-0.979967 -2.571099,-0.979967 -3.551868,0 -0.980902,0.980099 -0.980902,2.569 0,3.548968 0.38733,0.387143 0.866365,0.620018 1.366809,0.701858 0.713645,0.11676 1.180429,0.629555 1.383446,1.110256 0.20508,0.485475 0.270083,1.289657 -0.344765,1.904005 l -1.650308,1.648874 c -5.14e-4,5.83e-4 -0.0013,0.0013 -0.0018,0.0018 -0.900289,0.905991 -1.956119,1.61867 -3.219746,1.637356 -1.273297,0.01867 -2.368729,-0.671438 -3.334923,-1.634524 l -0.0011,-0.0013 -1.629542,-1.628207 c -0.181979,0.27141 -0.392798,0.528904 -0.632366,0.768352 -1.988225,1.986609 -5.211786,1.986609 -7.200011,0 -1.988224,-1.986609 -1.988224,-5.20759 0,-7.194199 0.239569,-0.239323 0.497375,-0.450036 0.76897,-0.631749 l -1.625454,-1.624216 -0.0011,-0.0013 c -0.965485,-0.967085 -1.657751,-2.062778 -1.638919,-3.336583 0.01868,-1.264009 0.733487,-2.320027 1.641705,-3.221147 5.84e-4,-5.81e-4 0.0012,-0.0012 0.0017,-0.0017 l 1.645855,-1.644528 c 0.614916,-0.614413 1.419871,-0.549474 1.905702,-0.344523 0.481021,0.202915 0.994274,0.669249 1.111117,1.382381 0.08192,0.500075 0.314932,0.97873 0.702391,1.365871 0.98082,0.980018 2.571061,0.980018 3.551883,0 0.980833,-0.980032 0.980833,-2.568961 1.1e-5,-3.548992 -0.387457,-0.387142 -0.866517,-0.619942 -1.366988,-0.701816 -0.713727,-0.116748 -1.180431,-0.629582 -1.383511,-1.110209 -0.205117,-0.485434 -0.270124,-1.289732 0.344791,-1.904145 l 1.645716,-1.644357 c 6.07e-4,-6e-4 0.0012,-0.0012 0.0018,-0.0018 0.901845,-0.9075 1.958726,-1.621727 3.223768,-1.640375 z m 0.03805,2.577221 c -0.263764,0.0039 -0.709135,0.152228 -1.432716,0.880618 l -0.0034,0.0035 -0.700829,0.700218 c 0.528112,0.244683 1.022765,0.584424 1.457301,1.01863 1.988236,1.9866 1.988236,5.207527 0,7.194092 -1.988198,1.986609 -5.21176,1.986609 -7.199984,0 -0.434563,-0.434183 -0.774581,-0.928423 -1.019464,-1.456101 l -0.70092,0.700371 -0.0035,0.0034 c -0.728947,0.72299 -0.87743,1.167999 -0.881325,1.431678 -0.0038,0.254523 0.122944,0.713706 0.885504,1.47768 1.16e-4,1.32e-4 2.48e-4,2.62e-4 3.65e-4,3.81e-4 l 3.005405,3.00292 c 0.345565,0.345262 0.466149,0.855989 0.31145,1.319295 -0.1547,0.463181 -0.558099,0.799157 -1.041945,0.867975 -0.519573,0.07372 -1.018703,0.309302 -1.419536,0.709848 -0.98082,0.979967 -0.98082,2.568868 1.3e-5,3.548968 0.980821,0.979967 2.571049,0.979967 3.551883,0 0.40082,-0.400547 0.636558,-0.899293 0.710425,-1.418404 0.06879,-0.483408 0.405116,-0.886529 0.868685,-1.041054 0.463569,-0.154651 0.974759,-0.03415 1.320311,0.311105 l 3.009556,3.007174 c 3.77e-4,2.94e-4 6.27e-4,5.89e-4 0.0013,6.27e-4 0,1.31e-4 0,1.31e-4 1.31e-4,1.31e-4 0.761372,0.758691 1.219772,0.884731 1.473864,0.88099 0.263121,-0.0038 0.707717,-0.151812 1.428586,-0.877512 l 0.0031,-0.0038 0.70526,-0.704565 c -0.528046,-0.24473 -1.022683,-0.584446 -1.457089,-1.018497 -1.988239,-1.986615 -1.988239,-5.207591 0,-7.194206 1.988106,-1.986609 5.211719,-1.986609 7.199957,0 0.434533,0.434182 0.774525,0.928418 1.01933,1.455906 l 0.700624,-0.700053 0.0038,-0.0031 c 0.728996,-0.722862 0.877455,-1.167997 0.881322,-1.43155 0.0038,-0.254531 -0.122914,-0.713708 -0.884932,-1.477299 -3.82e-4,-2.63e-4 -6.27e-4,-6.26e-4 -6.27e-4,-6.26e-4 l -3.005512,-3.002889 c -0.345544,-0.345295 -0.466139,-0.856079 -0.311363,-1.31927 0.154651,-0.463203 0.558104,-0.799246 1.042038,-0.867949 0.519531,-0.07379 1.018816,-0.309339 1.419689,-0.70987 0.980769,-0.980019 0.980769,-2.56896 0,-3.54898 -0.980895,-0.980032 -2.571099,-0.980032 -3.552,0 -0.400873,0.400532 -0.636518,0.899305 -0.710424,1.418518 -0.06875,0.483449 -0.405002,0.886558 -0.868684,1.041144 -0.463558,0.154598 -0.974711,0.03411 -1.320247,-0.31117 l -3.005508,-3.003051 c -2.63e-4,-1.61e-4 -3.82e-4,-3.22e-4 -5.14e-4,-4.83e-4 -0.764468,-0.761858 -1.224151,-0.888452 -1.478888,-0.884689 z"
       fill="#000000"
       id="path1"
       style="fill:#6aaa64;fill-opacity:1;stroke:none;stroke-width:8.81166" />
  </g>
</svg>
