<svg width="192" height="192" viewBox="0 0 50.8 50.8" xmlns="http://www.w3.org/2000/svg"><g style="stroke-width:.999557"><path style="fill:none;stroke:#d1b036;stroke-width:3.17359;stroke-linecap:round;stroke-linejoin:round;stroke-dasharray:none;stroke-opacity:1" d="M6.615 12.615v25.57a6 6 45 0 0 6 6h25.57a6 6 135 0 0 6-6V12.824a6.033 6.033 45.16 0 0-6-6.034l-25.57-.142a5.967 5.967 135.16 0 0-6 5.967Z" transform="matrix(1.00003 0 0 1.00085 0 -.038)"/><path fill-rule="evenodd" clip-rule="evenodd" d="M24.265 11.267c1.275-.019 2.372.673 3.34 1.638l1.626 1.625a5.094 5.094 0 0 1 7.832-.768 5.084 5.084 0 0 1-.768 7.826l1.625 1.624h.002c.965.968 1.657 2.064 1.638 3.337-.018 1.264-.733 2.32-1.641 3.222l-.002.001-1.646 1.645c-.615.614-1.42.55-1.905.344-.481-.203-.995-.669-1.111-1.382A2.513 2.513 0 0 0 29 29.013a2.508 2.508 0 0 0 1.366 4.25c.714.118 1.18.63 1.384 1.111.205.486.27 1.29-.345 1.904l-1.65 1.65h-.002c-.9.907-1.956 1.62-3.22 1.638-1.273.019-2.369-.671-3.335-1.634l-.001-.002-1.63-1.628a5.094 5.094 0 0 1-7.832.768 5.084 5.084 0 0 1 .769-7.825L12.88 27.62h-.002c-.965-.968-1.657-2.064-1.638-3.338.018-1.264.733-2.32 1.641-3.22l.002-.002 1.646-1.645c.615-.614 1.42-.55 1.905-.344.482.203.995.669 1.112 1.382a2.513 2.513 0 0 0 4.254 1.366 2.508 2.508 0 0 0-1.367-4.251c-.714-.117-1.18-.63-1.384-1.11-.205-.486-.27-1.29.345-1.904l1.646-1.645.002-.001c.902-.908 1.958-1.622 3.223-1.64zm.038 2.577c-.263.004-.709.153-1.432.88l-.004.004-.7.7a5.084 5.084 0 0 1 1.457 8.213 5.094 5.094 0 0 1-8.22-1.456l-.7.7-.004.004c-.73.723-.878 1.168-.881 1.432-.004.254.122.713.885 1.477l3.006 3.004a1.288 1.288 0 0 1-.73 2.187 2.508 2.508 0 0 0-1.42 4.259 2.513 2.513 0 0 0 4.262-1.419 1.289 1.289 0 0 1 2.19-.73l3.009 3.008h.001c.761.76 1.22.885 1.474.881.263-.003.708-.151 1.429-.877l.003-.004.705-.705a5.084 5.084 0 0 1-1.457-8.213 5.094 5.094 0 0 1 8.22 1.457l.7-.7.003-.003c.73-.723.878-1.168.882-1.432.004-.255-.123-.714-.885-1.477L33.09 22.03a1.288 1.288 0 0 1 .73-2.187 2.508 2.508 0 0 0 1.42-4.259 2.513 2.513 0 0 0-4.262 1.419 1.289 1.289 0 0 1-2.19.73l-3.005-3.003c-.765-.763-1.224-.89-1.48-.886z" style="fill:#6aaa64;fill-opacity:1;stroke:none;stroke-width:8.81166" transform="matrix(1.00003 0 0 1.00085 0 -.038)"/></g></svg>
